<svg width="98" height="27" viewBox="0 0 98 27" fill="none" xmlns="http://www.w3.org/2000/svg">
<path d="M10.0554 0L19.9932 9.93779V16.3811L10.0554 26.3189L0 16.2635V10.0554L10.0554 0ZM2.32628 15.2999L10.0554 23.029L17.6669 15.4175V10.9014L10.0554 3.28986L2.32628 11.019V15.2999Z" fill="#1B1817"/>
<path d="M10.0554 11.0947L15.7887 16.8279V20.5453L10.0554 26.2786L4.2542 20.4774V16.8959L10.0554 11.0947ZM6.58048 19.5138L10.0554 22.9888L13.4625 19.5818V17.7915L10.0554 14.3845L6.58048 17.8595V19.5138Z" fill="#1B1817"/>
<path d="M10.0554 5.72631L15.7887 11.4596V15.177L10.0554 20.9103L4.2542 15.109V11.5276L10.0554 5.72631ZM6.58048 14.1455L10.0554 17.6204L13.4625 14.2134V12.4232L10.0554 9.01617L6.58048 12.4911V14.1455Z" fill="#1B1817"/>
<path d="M73.6621 19.5565C73.2273 19.5565 72.8692 19.4158 72.5878 19.1344C72.3192 18.8531 72.1849 18.4949 72.1849 18.0601V12.3432H69.5879V10.041H72.1849V6.12744H74.6021V10.041H78.0361V12.3432H74.6021V16.6788C74.6021 17.0625 74.7748 17.2544 75.1201 17.2544H77.6908V19.5565H73.6621Z" fill="#1B1817"/>
<path d="M59.1621 19.5565V10.041H61.5793V11.4607H61.9247C62.1421 10.9235 62.4938 10.5079 62.9798 10.2137C63.4658 9.91954 64.0349 9.77246 64.6872 9.77246C65.3011 9.77246 65.8574 9.90675 66.3562 10.1753C66.8678 10.4311 67.2707 10.8404 67.5649 11.4031C67.8718 11.9531 68.0253 12.6629 68.0253 13.5326V19.5565H65.608V14.1465C65.608 13.4686 65.4418 12.9379 65.1093 12.5542C64.7895 12.1577 64.3227 11.9595 63.7088 11.9595C63.0054 11.9595 62.4746 12.2025 62.1165 12.6885C61.7584 13.1617 61.5793 13.8012 61.5793 14.6069V19.5565H59.1621Z" fill="#1B1817"/>
<path d="M48.6406 19.5564V17.2543H51.8636V12.3431H48.8708V10.041H54.2808V17.2543H57.0434V19.5564H48.6406Z" fill="#1B1817"/>
<path d="M37.9395 19.5565V17.2544H41.2775V8.42956H38.0546V6.12744H43.6948V17.2544H46.8026V19.5565H37.9395Z" fill="#1B1817"/>
<path d="M27.4961 19.5565V6.12744H36.0907V8.54467H30.0284V11.6142H34.8602V14.0314H30.0284V19.5565H27.4961Z" fill="#1B1817"/>
<rect x="54.1387" y="5.72607" width="2.67688" height="2.67688" transform="rotate(90 54.1387 5.72607)" fill="#1B1817"/>
<path d="M95.4141 19.6186V5.90479H98.0001V19.6186H95.4141Z" fill="#1B1817"/>
<path d="M82.252 19.6186L85.8567 5.90479H90.3627L93.9674 19.6186H91.303L90.5586 16.6015H85.6608L84.9163 19.6186H82.252ZM86.2681 14.2114H89.9513L88.286 7.53085H87.9334L86.2681 14.2114Z" fill="#1B1817"/>
</svg>
